<mxfile host="app.diagrams.net" modified="2021-03-18T05:47:28.907Z" agent="5.0 (X11; Linux x86_64) AppleWebKit/537.36 (KHTML, like Gecko) Chrome/89.0.4389.90 Safari/537.36" etag="bP2JEc3Adfp6SGxmtOWU" version="14.4.7" type="github" pages="3">
  <diagram id="C5RBs43oDa-KdzZeNtuy" name="login">
    <mxGraphModel dx="1054" dy="605" grid="1" gridSize="10" guides="1" tooltips="1" connect="1" arrows="1" fold="1" page="1" pageScale="1" pageWidth="827" pageHeight="1169" math="0" shadow="0">
      <root>
        <mxCell id="WIyWlLk6GJQsqaUBKTNV-0" />
        <mxCell id="WIyWlLk6GJQsqaUBKTNV-1" parent="WIyWlLk6GJQsqaUBKTNV-0" />
        <mxCell id="tE3NUFGUL5-V3eDfIwcR-2" style="edgeStyle=orthogonalEdgeStyle;rounded=0;orthogonalLoop=1;jettySize=auto;html=1;entryX=0.5;entryY=0;entryDx=0;entryDy=0;shadow=0;fontSize=11;strokeWidth=1;labelBackgroundColor=none;endFill=0;endArrow=block;endSize=8;" edge="1" parent="WIyWlLk6GJQsqaUBKTNV-1" source="tE3NUFGUL5-V3eDfIwcR-0" target="tE3NUFGUL5-V3eDfIwcR-1">
          <mxGeometry relative="1" as="geometry" />
        </mxCell>
        <mxCell id="tE3NUFGUL5-V3eDfIwcR-0" value="Start" style="strokeWidth=1;html=1;shape=mxgraph.flowchart.terminator;whiteSpace=wrap;rounded=1;shadow=0;glass=0;" vertex="1" parent="WIyWlLk6GJQsqaUBKTNV-1">
          <mxGeometry x="260" width="100" height="40" as="geometry" />
        </mxCell>
        <mxCell id="tE3NUFGUL5-V3eDfIwcR-4" style="edgeStyle=orthogonalEdgeStyle;rounded=0;orthogonalLoop=1;jettySize=auto;html=1;shadow=0;fontSize=11;strokeWidth=1;labelBackgroundColor=none;endFill=0;endArrow=block;endSize=8;" edge="1" parent="WIyWlLk6GJQsqaUBKTNV-1" source="tE3NUFGUL5-V3eDfIwcR-1" target="tE3NUFGUL5-V3eDfIwcR-3">
          <mxGeometry relative="1" as="geometry" />
        </mxCell>
        <mxCell id="tE3NUFGUL5-V3eDfIwcR-1" value="Input username&lt;br&gt;dan password" style="shape=parallelogram;html=1;strokeWidth=1;perimeter=parallelogramPerimeter;whiteSpace=wrap;rounded=0;size=0.125;shadow=0;fontSize=11;endFill=0;endArrow=block;endSize=8;" vertex="1" parent="WIyWlLk6GJQsqaUBKTNV-1">
          <mxGeometry x="220" y="80" width="180" height="40" as="geometry" />
        </mxCell>
        <mxCell id="tE3NUFGUL5-V3eDfIwcR-6" style="edgeStyle=orthogonalEdgeStyle;rounded=0;orthogonalLoop=1;jettySize=auto;html=1;entryX=0.5;entryY=0;entryDx=0;entryDy=0;entryPerimeter=0;shadow=0;fontSize=11;strokeWidth=1;labelBackgroundColor=none;endFill=0;endArrow=block;endSize=8;" edge="1" parent="WIyWlLk6GJQsqaUBKTNV-1" source="tE3NUFGUL5-V3eDfIwcR-3" target="tE3NUFGUL5-V3eDfIwcR-5">
          <mxGeometry relative="1" as="geometry" />
        </mxCell>
        <mxCell id="tE3NUFGUL5-V3eDfIwcR-3" value="Proses login" style="rounded=0;whiteSpace=wrap;html=1;absoluteArcSize=1;strokeWidth=1;shadow=0;fontSize=11;endFill=0;endArrow=block;endSize=8;" vertex="1" parent="WIyWlLk6GJQsqaUBKTNV-1">
          <mxGeometry x="260" y="160" width="100" height="40" as="geometry" />
        </mxCell>
        <mxCell id="tE3NUFGUL5-V3eDfIwcR-11" value="True" style="edgeStyle=orthogonalEdgeStyle;rounded=0;orthogonalLoop=1;jettySize=auto;html=1;entryX=0.5;entryY=0;entryDx=0;entryDy=0;shadow=0;fontSize=11;strokeWidth=1;labelBackgroundColor=#ffffff;endFill=0;endArrow=block;endSize=8;" edge="1" parent="WIyWlLk6GJQsqaUBKTNV-1" source="tE3NUFGUL5-V3eDfIwcR-5" target="tE3NUFGUL5-V3eDfIwcR-7">
          <mxGeometry relative="1" as="geometry" />
        </mxCell>
        <mxCell id="tE3NUFGUL5-V3eDfIwcR-13" value="False" style="edgeStyle=orthogonalEdgeStyle;rounded=0;orthogonalLoop=1;jettySize=auto;html=1;entryX=0;entryY=0.5;entryDx=0;entryDy=0;shadow=0;fontSize=11;strokeWidth=1;labelBackgroundColor=#ffffff;endFill=0;endArrow=block;endSize=8;jumpStyle=none;" edge="1" parent="WIyWlLk6GJQsqaUBKTNV-1" source="tE3NUFGUL5-V3eDfIwcR-5" target="tE3NUFGUL5-V3eDfIwcR-12">
          <mxGeometry relative="1" as="geometry" />
        </mxCell>
        <mxCell id="tE3NUFGUL5-V3eDfIwcR-5" value="Credentials benar?" style="strokeWidth=1;html=1;shape=mxgraph.flowchart.decision;whiteSpace=wrap;rounded=0;shadow=0;fontSize=11;endFill=0;endArrow=block;endSize=8;" vertex="1" parent="WIyWlLk6GJQsqaUBKTNV-1">
          <mxGeometry x="245" y="240" width="130" height="80" as="geometry" />
        </mxCell>
        <mxCell id="tE3NUFGUL5-V3eDfIwcR-15" style="edgeStyle=orthogonalEdgeStyle;rounded=0;orthogonalLoop=1;jettySize=auto;html=1;entryX=0.5;entryY=0;entryDx=0;entryDy=0;entryPerimeter=0;shadow=0;fontSize=11;strokeWidth=1;labelBackgroundColor=none;endFill=0;endArrow=block;endSize=8;" edge="1" parent="WIyWlLk6GJQsqaUBKTNV-1" source="tE3NUFGUL5-V3eDfIwcR-7" target="tE3NUFGUL5-V3eDfIwcR-14">
          <mxGeometry relative="1" as="geometry" />
        </mxCell>
        <mxCell id="tE3NUFGUL5-V3eDfIwcR-7" value="Token JWT" style="shape=parallelogram;html=1;strokeWidth=1;perimeter=parallelogramPerimeter;whiteSpace=wrap;rounded=0;size=0.23;shadow=0;fontSize=11;endFill=0;endArrow=block;endSize=8;" vertex="1" parent="WIyWlLk6GJQsqaUBKTNV-1">
          <mxGeometry x="260" y="380" width="100" height="60" as="geometry" />
        </mxCell>
        <mxCell id="tE3NUFGUL5-V3eDfIwcR-23" style="edgeStyle=orthogonalEdgeStyle;rounded=0;orthogonalLoop=1;jettySize=auto;html=1;entryX=1;entryY=0.5;entryDx=0;entryDy=0;entryPerimeter=0;shadow=0;labelBackgroundColor=none;endArrow=block;endFill=0;endSize=8;strokeWidth=1;" edge="1" parent="WIyWlLk6GJQsqaUBKTNV-1" source="tE3NUFGUL5-V3eDfIwcR-12" target="tE3NUFGUL5-V3eDfIwcR-14">
          <mxGeometry relative="1" as="geometry">
            <Array as="points">
              <mxPoint x="480" y="500" />
            </Array>
          </mxGeometry>
        </mxCell>
        <mxCell id="tE3NUFGUL5-V3eDfIwcR-12" value="Credentials&lt;br&gt;salah" style="shape=parallelogram;html=1;strokeWidth=1;perimeter=parallelogramPerimeter;whiteSpace=wrap;rounded=0;size=0.23;shadow=0;fontSize=11;endFill=0;endArrow=block;endSize=8;" vertex="1" parent="WIyWlLk6GJQsqaUBKTNV-1">
          <mxGeometry x="440" y="250" width="100" height="60" as="geometry" />
        </mxCell>
        <mxCell id="tE3NUFGUL5-V3eDfIwcR-14" value="End" style="strokeWidth=1;html=1;shape=mxgraph.flowchart.terminator;whiteSpace=wrap;rounded=1;shadow=0;glass=0;" vertex="1" parent="WIyWlLk6GJQsqaUBKTNV-1">
          <mxGeometry x="260" y="480" width="100" height="40" as="geometry" />
        </mxCell>
      </root>
    </mxGraphModel>
  </diagram>
  <diagram id="LXsX329N4g-DjXMw4RKQ" name="create-ea">
    <mxGraphModel dx="1054" dy="605" grid="1" gridSize="10" guides="1" tooltips="1" connect="1" arrows="1" fold="1" page="1" pageScale="1" pageWidth="827" pageHeight="1169" math="0" shadow="0">
      <root>
        <mxCell id="6KQWg3v5wUVo-hego7Wu-0" />
        <mxCell id="6KQWg3v5wUVo-hego7Wu-1" parent="6KQWg3v5wUVo-hego7Wu-0" />
        <mxCell id="U8l3LxekH08N-TCR7E8b-5" style="edgeStyle=orthogonalEdgeStyle;rounded=0;orthogonalLoop=1;jettySize=auto;html=1;entryX=0.5;entryY=0;entryDx=0;entryDy=0;shadow=0;labelBackgroundColor=none;endArrow=block;endFill=0;endSize=8;strokeWidth=1;" edge="1" parent="6KQWg3v5wUVo-hego7Wu-1" source="U8l3LxekH08N-TCR7E8b-3" target="U8l3LxekH08N-TCR7E8b-4">
          <mxGeometry relative="1" as="geometry" />
        </mxCell>
        <mxCell id="U8l3LxekH08N-TCR7E8b-3" value="Start" style="strokeWidth=1;html=1;shape=mxgraph.flowchart.terminator;whiteSpace=wrap;rounded=0;shadow=0;endArrow=block;endFill=0;endSize=8;fontSize=11;" vertex="1" parent="6KQWg3v5wUVo-hego7Wu-1">
          <mxGeometry x="350" width="100" height="40" as="geometry" />
        </mxCell>
        <mxCell id="U8l3LxekH08N-TCR7E8b-9" style="edgeStyle=orthogonalEdgeStyle;rounded=0;orthogonalLoop=1;jettySize=auto;html=1;exitX=0.5;exitY=1;exitDx=0;exitDy=0;entryX=0.5;entryY=0;entryDx=0;entryDy=0;entryPerimeter=0;shadow=0;labelBackgroundColor=none;endArrow=block;endFill=0;endSize=8;strokeWidth=1;" edge="1" parent="6KQWg3v5wUVo-hego7Wu-1" source="U8l3LxekH08N-TCR7E8b-4" target="U8l3LxekH08N-TCR7E8b-8">
          <mxGeometry relative="1" as="geometry" />
        </mxCell>
        <mxCell id="U8l3LxekH08N-TCR7E8b-4" value="Input username, &lt;br&gt;password dan &lt;br&gt;nama election authority" style="shape=parallelogram;html=1;strokeWidth=1;perimeter=parallelogramPerimeter;whiteSpace=wrap;rounded=0;size=0.140625;shadow=0;endArrow=block;endFill=0;endSize=8;fontSize=11;" vertex="1" parent="6KQWg3v5wUVo-hego7Wu-1">
          <mxGeometry x="320" y="80" width="160" height="60" as="geometry" />
        </mxCell>
        <mxCell id="U8l3LxekH08N-TCR7E8b-15" style="edgeStyle=orthogonalEdgeStyle;rounded=0;orthogonalLoop=1;jettySize=auto;html=1;entryX=0.5;entryY=0;entryDx=0;entryDy=0;entryPerimeter=0;shadow=0;labelBackgroundColor=none;endArrow=block;endFill=0;endSize=8;strokeWidth=1;" edge="1" parent="6KQWg3v5wUVo-hego7Wu-1" source="U8l3LxekH08N-TCR7E8b-6" target="U8l3LxekH08N-TCR7E8b-14">
          <mxGeometry relative="1" as="geometry" />
        </mxCell>
        <mxCell id="U8l3LxekH08N-TCR7E8b-6" value="Proses pembuatan akun election authority" style="rounded=0;whiteSpace=wrap;html=1;absoluteArcSize=1;strokeWidth=1;shadow=0;endArrow=block;endFill=0;endSize=8;fontSize=11;" vertex="1" parent="6KQWg3v5wUVo-hego7Wu-1">
          <mxGeometry x="335" y="320" width="130" height="70" as="geometry" />
        </mxCell>
        <mxCell id="U8l3LxekH08N-TCR7E8b-10" value="True" style="edgeStyle=orthogonalEdgeStyle;rounded=0;orthogonalLoop=1;jettySize=auto;html=1;entryX=0.5;entryY=0;entryDx=0;entryDy=0;shadow=0;labelBackgroundColor=#ffffff;endArrow=block;endFill=0;endSize=8;strokeWidth=1;" edge="1" parent="6KQWg3v5wUVo-hego7Wu-1" source="U8l3LxekH08N-TCR7E8b-8" target="U8l3LxekH08N-TCR7E8b-6">
          <mxGeometry relative="1" as="geometry" />
        </mxCell>
        <mxCell id="U8l3LxekH08N-TCR7E8b-12" value="False" style="edgeStyle=orthogonalEdgeStyle;rounded=0;orthogonalLoop=1;jettySize=auto;html=1;shadow=0;labelBackgroundColor=#ffffff;endArrow=block;endFill=0;endSize=8;strokeWidth=1;" edge="1" parent="6KQWg3v5wUVo-hego7Wu-1" source="U8l3LxekH08N-TCR7E8b-8" target="U8l3LxekH08N-TCR7E8b-11">
          <mxGeometry relative="1" as="geometry" />
        </mxCell>
        <mxCell id="U8l3LxekH08N-TCR7E8b-8" value="unique&lt;br&gt;username?" style="strokeWidth=1;html=1;shape=mxgraph.flowchart.decision;whiteSpace=wrap;rounded=0;shadow=0;endArrow=block;endFill=0;endSize=8;fontSize=11;" vertex="1" parent="6KQWg3v5wUVo-hego7Wu-1">
          <mxGeometry x="340" y="180" width="120" height="100" as="geometry" />
        </mxCell>
        <mxCell id="U8l3LxekH08N-TCR7E8b-13" style="edgeStyle=orthogonalEdgeStyle;rounded=0;orthogonalLoop=1;jettySize=auto;html=1;entryX=1;entryY=0.5;entryDx=0;entryDy=0;shadow=0;labelBackgroundColor=none;endArrow=block;endFill=0;endSize=8;strokeWidth=1;" edge="1" parent="6KQWg3v5wUVo-hego7Wu-1" source="U8l3LxekH08N-TCR7E8b-11" target="U8l3LxekH08N-TCR7E8b-4">
          <mxGeometry relative="1" as="geometry">
            <Array as="points">
              <mxPoint x="575" y="110" />
            </Array>
          </mxGeometry>
        </mxCell>
        <mxCell id="U8l3LxekH08N-TCR7E8b-11" value="Username sudah digunakan" style="shape=parallelogram;html=1;strokeWidth=1;perimeter=parallelogramPerimeter;whiteSpace=wrap;rounded=0;size=0.17307692307692307;shadow=0;endArrow=block;endFill=0;endSize=8;fontSize=11;" vertex="1" parent="6KQWg3v5wUVo-hego7Wu-1">
          <mxGeometry x="510" y="200" width="130" height="60" as="geometry" />
        </mxCell>
        <mxCell id="U8l3LxekH08N-TCR7E8b-14" value="End" style="strokeWidth=1;html=1;shape=mxgraph.flowchart.terminator;whiteSpace=wrap;rounded=0;shadow=0;endArrow=block;endFill=0;endSize=8;fontSize=11;" vertex="1" parent="6KQWg3v5wUVo-hego7Wu-1">
          <mxGeometry x="350" y="440" width="100" height="40" as="geometry" />
        </mxCell>
      </root>
    </mxGraphModel>
  </diagram>
  <diagram id="xBZYPQlDqlaTNY8MY0ZJ" name="create-election">
    <mxGraphModel dx="1054" dy="605" grid="1" gridSize="10" guides="1" tooltips="1" connect="1" arrows="1" fold="1" page="1" pageScale="1" pageWidth="827" pageHeight="1169" math="0" shadow="0">
      <root>
        <mxCell id="L_kDG-t8zdZ7WhSsaVpq-0" />
        <mxCell id="L_kDG-t8zdZ7WhSsaVpq-1" parent="L_kDG-t8zdZ7WhSsaVpq-0" />
        <mxCell id="wRAH97HWcBKKK4Xmf5Ck-0" style="edgeStyle=orthogonalEdgeStyle;rounded=0;orthogonalLoop=1;jettySize=auto;html=1;entryX=0.5;entryY=0;entryDx=0;entryDy=0;shadow=0;labelBackgroundColor=none;endArrow=block;endFill=0;endSize=8;strokeWidth=1;" edge="1" parent="L_kDG-t8zdZ7WhSsaVpq-1" source="lsVILo5q8_tEaw1KiQmF-2" target="lsVILo5q8_tEaw1KiQmF-3">
          <mxGeometry relative="1" as="geometry" />
        </mxCell>
        <mxCell id="lsVILo5q8_tEaw1KiQmF-2" value="Start" style="strokeWidth=1;html=1;shape=mxgraph.flowchart.terminator;whiteSpace=wrap;rounded=0;shadow=0;endArrow=block;endFill=0;endSize=8;fontSize=11;" vertex="1" parent="L_kDG-t8zdZ7WhSsaVpq-1">
          <mxGeometry x="350" width="100" height="40" as="geometry" />
        </mxCell>
        <mxCell id="wRAH97HWcBKKK4Xmf5Ck-1" style="edgeStyle=orthogonalEdgeStyle;rounded=0;orthogonalLoop=1;jettySize=auto;html=1;entryX=0.5;entryY=0;entryDx=0;entryDy=0;shadow=0;labelBackgroundColor=none;endArrow=block;endFill=0;endSize=8;strokeWidth=1;" edge="1" parent="L_kDG-t8zdZ7WhSsaVpq-1" source="lsVILo5q8_tEaw1KiQmF-3" target="lsVILo5q8_tEaw1KiQmF-4">
          <mxGeometry relative="1" as="geometry" />
        </mxCell>
        <mxCell id="lsVILo5q8_tEaw1KiQmF-3" value="Input nama, deskripsi,&lt;br&gt;tanggal mulai dan&lt;br&gt;tanggal selesai" style="shape=parallelogram;html=1;strokeWidth=1;perimeter=parallelogramPerimeter;whiteSpace=wrap;rounded=0;size=0.140625;shadow=0;endArrow=block;endFill=0;endSize=8;fontSize=11;" vertex="1" parent="L_kDG-t8zdZ7WhSsaVpq-1">
          <mxGeometry x="320" y="80" width="160" height="60" as="geometry" />
        </mxCell>
        <mxCell id="wRAH97HWcBKKK4Xmf5Ck-3" style="edgeStyle=orthogonalEdgeStyle;rounded=0;orthogonalLoop=1;jettySize=auto;html=1;entryX=0.5;entryY=0;entryDx=0;entryDy=0;shadow=0;labelBackgroundColor=none;endArrow=block;endFill=0;endSize=8;strokeWidth=1;" edge="1" parent="L_kDG-t8zdZ7WhSsaVpq-1" source="lsVILo5q8_tEaw1KiQmF-4" target="wRAH97HWcBKKK4Xmf5Ck-2">
          <mxGeometry relative="1" as="geometry" />
        </mxCell>
        <mxCell id="lsVILo5q8_tEaw1KiQmF-4" value="Pembuatan election" style="rounded=0;whiteSpace=wrap;html=1;absoluteArcSize=1;strokeWidth=1;shadow=0;endArrow=block;endFill=0;endSize=8;fontSize=11;" vertex="1" parent="L_kDG-t8zdZ7WhSsaVpq-1">
          <mxGeometry x="355" y="200" width="90" height="80" as="geometry" />
        </mxCell>
        <mxCell id="wRAH97HWcBKKK4Xmf5Ck-5" style="edgeStyle=orthogonalEdgeStyle;rounded=0;orthogonalLoop=1;jettySize=auto;html=1;shadow=0;labelBackgroundColor=none;endArrow=block;endFill=0;endSize=8;strokeWidth=1;" edge="1" parent="L_kDG-t8zdZ7WhSsaVpq-1" source="wRAH97HWcBKKK4Xmf5Ck-2" target="wRAH97HWcBKKK4Xmf5Ck-4">
          <mxGeometry relative="1" as="geometry" />
        </mxCell>
        <mxCell id="wRAH97HWcBKKK4Xmf5Ck-2" value="Election berhasil&lt;br&gt;dibuat" style="shape=parallelogram;html=1;strokeWidth=1;perimeter=parallelogramPerimeter;whiteSpace=wrap;rounded=0;size=0.1607142857142857;shadow=0;endArrow=block;endFill=0;endSize=8;fontSize=11;" vertex="1" parent="L_kDG-t8zdZ7WhSsaVpq-1">
          <mxGeometry x="330" y="320" width="140" height="60" as="geometry" />
        </mxCell>
        <mxCell id="wRAH97HWcBKKK4Xmf5Ck-4" value="End" style="strokeWidth=1;html=1;shape=mxgraph.flowchart.terminator;whiteSpace=wrap;rounded=0;shadow=0;endArrow=block;endFill=0;endSize=8;fontSize=11;" vertex="1" parent="L_kDG-t8zdZ7WhSsaVpq-1">
          <mxGeometry x="350" y="440" width="100" height="40" as="geometry" />
        </mxCell>
      </root>
    </mxGraphModel>
  </diagram>
</mxfile>
